<svg width="48" height="44" viewBox="0 0 48 44" fill="none" xmlns="http://www.w3.org/2000/svg">
<path d="M23.9868 37C28.7289 37 32.75 35.3443 36.05 32.0328C39.35 28.7213 41 24.7104 41 20C41 18.6966 40.8583 17.4458 40.575 16.2474C40.2916 15.0492 39.9 13.9 39.4 12.8C38.4666 13.5 37.4565 14.0417 36.3695 14.425C35.2826 14.8083 34.1594 15 33 15C31.1666 15 29.475 14.5333 27.925 13.6C26.375 12.6667 25.0666 11.45 24 9.95C22.9333 11.45 21.625 12.6667 20.075 13.6C18.525 14.5333 16.8333 15 15 15C13.8405 15 12.7173 14.8083 11.6304 14.425C10.5434 14.0417 9.53329 13.5 8.59995 12.8C8.09995 13.9 7.70829 15.0583 7.42495 16.275C7.14162 17.4917 6.99995 18.7333 6.99995 20C6.99995 24.7104 8.6544 28.7213 11.9633 32.0328C15.2722 35.3443 19.28 37 23.9868 37ZM17.7112 24.85C18.4704 24.85 19.1083 24.5879 19.625 24.0638C20.1416 23.5396 20.4 22.8979 20.4 22.1388C20.4 21.3796 20.1379 20.7417 19.6137 20.225C19.0895 19.7083 18.4478 19.45 17.6887 19.45C16.9295 19.45 16.2916 19.7121 15.775 20.2362C15.2583 20.7605 15 21.4021 15 22.1612C15 22.9204 15.262 23.5583 15.7862 24.075C16.3104 24.5917 16.9521 24.85 17.7112 24.85ZM30.3612 24.85C31.1204 24.85 31.7583 24.5879 32.275 24.0638C32.7916 23.5396 33.05 22.8979 33.05 22.1388C33.05 21.3796 32.7879 20.7417 32.2637 20.225C31.7395 19.7083 31.0978 19.45 30.3387 19.45C29.5795 19.45 28.9416 19.7121 28.425 20.2362C27.9083 20.7605 27.65 21.4021 27.65 22.1612C27.65 22.9204 27.912 23.5583 28.4362 24.075C28.9604 24.5917 29.6021 24.85 30.3612 24.85ZM15 12C17.1 12 18.875 11.275 20.325 9.825C21.775 8.375 22.5 6.6 22.5 4.5V3.05C19.9333 3.28333 17.5833 4.025 15.45 5.275C13.3166 6.525 11.55 8.15 10.15 10.15C10.8166 10.7167 11.5639 11.1667 12.3919 11.5C13.2198 11.8333 14.0892 12 15 12ZM33 12C33.9107 12 34.7801 11.8333 35.608 11.5C36.436 11.1667 37.1833 10.7167 37.85 10.15C36.45 8.15 34.6833 6.525 32.55 5.275C30.4166 4.025 28.0666 3.28333 25.5 3.05V4.5C25.5 6.6 26.225 8.375 27.675 9.825C29.125 11.275 30.9 12 33 12ZM3.29995 44C2.42845 44 1.69392 43.675 1.09635 43.025C0.498753 42.375 0.233286 41.6167 0.299953 40.75L2.19995 19.9C2.46662 17.1 3.22495 14.4833 4.47495 12.05C5.72495 9.61667 7.32495 7.50833 9.27495 5.725C11.225 3.94167 13.4583 2.54167 15.975 1.525C18.4916 0.508333 21.1666 0 24 0C26.8333 0 29.5083 0.508333 32.025 1.525C34.5416 2.54167 36.775 3.94167 38.725 5.725C40.675 7.50833 42.275 9.61667 43.525 12.05C44.775 14.4833 45.5333 17.1 45.8 19.9L47.7 40.75C47.7666 41.6167 47.5012 42.375 46.9036 43.025C46.306 43.675 45.5715 44 44.7 44H3.29995ZM23.9974 40C19.3991 40 15.325 38.6167 11.775 35.85C8.22495 33.0833 5.86662 29.5667 4.69995 25.3L3.29995 41H44.7L43.3 25.3C42.1333 29.5667 39.7833 33.0833 36.25 35.85C32.7166 38.6167 28.6324 40 23.9974 40ZM23.9974 41H44.7H3.29995H23.9974Z" fill="black"/>
</svg>
