<svg width="48" height="48" viewBox="0 0 48 48" fill="none" xmlns="http://www.w3.org/2000/svg">
<g clip-path="url(#clip0_1_48)">
<path d="M24 46C24.7667 46 25.5334 45.95 26.3 45.85C27.0667 45.75 27.8334 45.6167 28.6 45.45C31.4667 47.6833 34.675 48.4583 38.225 47.775C41.775 47.0917 44.4834 45.1833 46.35 42.05C47.8167 39.5833 48.3167 36.95 47.85 34.15C47.3834 31.35 46.0834 28.9833 43.95 27.05V26.9C46.0834 25 47.375 22.65 47.825 19.85C48.275 17.05 47.7834 14.4167 46.35 11.95C45.1167 9.85 43.425 8.275 41.275 7.225C39.125 6.175 36.85 5.8 34.45 6.1C33.3834 4.2 31.925 2.70833 30.075 1.625C28.225 0.541667 26.2 0 24 0C21.8 0 19.775 0.541667 17.925 1.625C16.075 2.70833 14.6167 4.2 13.55 6.1C11.15 5.8 8.87504 6.175 6.72504 7.225C4.57504 8.275 2.88338 9.85 1.65004 11.95C0.216711 14.4167 -0.274955 17.05 0.175045 19.85C0.625045 22.65 1.91671 25 4.05004 26.9V27.05C1.91671 28.9833 0.616711 31.35 0.150045 34.15C-0.316622 36.95 0.183378 39.5833 1.65004 42.05C3.51671 45.1833 6.22504 47.0917 9.77504 47.775C13.325 48.4583 16.5334 47.6833 19.4 45.45C20.1667 45.6167 20.9334 45.75 21.7 45.85C22.4667 45.95 23.2334 46 24 46ZM15.6 44.15C13.6 45.1167 11.5084 45.25 9.32504 44.55C7.14171 43.85 5.46671 42.5333 4.30004 40.6C3.40004 39.1 2.96671 37.5 3.00004 35.8C3.03338 34.1 3.58338 32.5333 4.65004 31.1C5.05004 32.5333 5.59171 33.9 6.27504 35.2C6.95838 36.5 7.76671 37.7167 8.70004 38.85C9.63338 39.9833 10.675 40.9917 11.825 41.875C12.975 42.7583 14.2334 43.5167 15.6 44.15ZM32.4 44.15C33.7667 43.5167 35.025 42.7583 36.175 41.875C37.325 40.9917 38.3667 39.9833 39.3 38.85C40.2334 37.7167 41.05 36.5 41.75 35.2C42.45 33.9 42.9834 32.5333 43.35 31.1C44.4167 32.5333 44.9667 34.1 45 35.8C45.0334 37.5 44.6 39.1 43.7 40.6C42.5334 42.5333 40.8584 43.85 38.675 44.55C36.4917 45.25 34.4 45.1167 32.4 44.15ZM24 43C19.2667 43 15.25 41.35 11.95 38.05C8.65004 34.75 7.00004 30.7333 7.00004 26C7.00004 21.8667 8.28338 18.2583 10.85 15.175C13.4167 12.0917 16.65 10.15 20.55 9.35C20.5167 9.55 20.5 9.74167 20.5 9.925V10.5C20.5 13.7667 21.6417 16.5417 23.925 18.825C26.2084 21.1083 28.9834 22.25 32.25 22.25C33.75 22.25 35.1334 22.0083 36.4 21.525C37.6667 21.0417 38.7834 20.3833 39.75 19.55C40.15 20.55 40.4584 21.5917 40.675 22.675C40.8917 23.7583 41 24.8667 41 26C41 30.7333 39.35 34.75 36.05 38.05C32.75 41.35 28.7334 43 24 43ZM17.7 30.85C16.9334 30.85 16.2917 30.5917 15.775 30.075C15.2584 29.5583 15 28.9167 15 28.15C15 27.3833 15.2584 26.7417 15.775 26.225C16.2917 25.7083 16.9334 25.45 17.7 25.45C18.4667 25.45 19.1084 25.7083 19.625 26.225C20.1417 26.7417 20.4 27.3833 20.4 28.15C20.4 28.9167 20.1417 29.5583 19.625 30.075C19.1084 30.5917 18.4667 30.85 17.7 30.85ZM30.35 30.85C29.5834 30.85 28.9417 30.5917 28.425 30.075C27.9084 29.5583 27.65 28.9167 27.65 28.15C27.65 27.3833 27.9084 26.7417 28.425 26.225C28.9417 25.7083 29.5834 25.45 30.35 25.45C31.1167 25.45 31.7584 25.7083 32.275 26.225C32.7917 26.7417 33.05 27.3833 33.05 28.15C33.05 28.9167 32.7917 29.5583 32.275 30.075C31.7584 30.5917 31.1167 30.85 30.35 30.85ZM4.35004 22.35C3.48338 20.9167 3.03338 19.4417 3.00004 17.925C2.96671 16.4083 3.38338 14.9167 4.25004 13.45C5.18338 11.85 6.46671 10.6583 8.10004 9.875C9.73338 9.09167 11.45 8.85 13.25 9.15C12.0834 9.88333 11.0167 10.7167 10.05 11.65C9.08338 12.5833 8.21671 13.6167 7.45004 14.75C6.68338 15.8833 6.04171 17.0833 5.52504 18.35C5.00838 19.6167 4.61671 20.95 4.35004 22.35ZM43.65 22.35C43.3834 20.95 42.9917 19.6167 42.475 18.35C41.9584 17.0833 41.3167 15.8833 40.55 14.75C39.7834 13.6167 38.9167 12.5833 37.95 11.65C36.9834 10.7167 35.9167 9.88333 34.75 9.15C36.55 8.85 38.2667 9.09167 39.9 9.875C41.5334 10.6583 42.8167 11.85 43.75 13.45C44.6167 14.9167 45.0334 16.4083 45 17.925C44.9667 19.4417 44.5167 20.9167 43.65 22.35ZM32.25 19.25C29.85 19.25 27.7917 18.3917 26.075 16.675C24.3584 14.9583 23.5 12.9 23.5 10.5C23.5 10.2333 23.5084 9.98333 23.525 9.75C23.5417 9.51667 23.5834 9.26667 23.65 9H24C25.5334 9 26.9917 9.18333 28.375 9.55C29.7584 9.91667 31.0667 10.45 32.3 11.15C33.5334 11.85 34.6584 12.6833 35.675 13.65C36.6917 14.6167 37.5834 15.7 38.35 16.9C37.6167 17.6333 36.75 18.2083 35.75 18.625C34.75 19.0417 33.5834 19.25 32.25 19.25ZM31.6 7.5C30.4334 7.03333 29.2167 6.66667 27.95 6.4C26.6834 6.13333 25.3667 6 24 6C22.6334 6 21.3167 6.13333 20.05 6.4C18.7834 6.66667 17.5667 7.03333 16.4 7.5C17.3667 6.23333 18.4834 5.16667 19.75 4.3C21.0167 3.43333 22.4334 3 24 3C25.5667 3 26.9834 3.43333 28.25 4.3C29.5167 5.16667 30.6334 6.23333 31.6 7.5Z" fill="black"/>
</g>
<defs>
<clipPath id="clip0_1_48">
<rect width="48" height="48" fill="white"/>
</clipPath>
</defs>
</svg>
