<svg width="40" height="40" viewBox="0 0 40 40" fill="none" xmlns="http://www.w3.org/2000/svg">
<path d="M20 40C17.2667 40 14.6833 39.475 12.25 38.425C9.81667 37.375 7.69167 35.9417 5.875 34.125C4.05833 32.3083 2.625 30.1833 1.575 27.75C0.525 25.3167 0 22.7333 0 20C0 17.2333 0.525 14.6333 1.575 12.2C2.625 9.76667 4.05833 7.65 5.875 5.85C7.69167 4.05 9.81667 2.625 12.25 1.575C14.6833 0.525 17.2667 0 20 0C22.7667 0 25.3667 0.525 27.8 1.575C30.2333 2.625 32.35 4.05 34.15 5.85C35.95 7.65 37.375 9.76667 38.425 12.2C39.475 14.6333 40 17.2333 40 20C40 22.7333 39.475 25.3167 38.425 27.75C37.375 30.1833 35.95 32.3083 34.15 34.125C32.35 35.9417 30.2333 37.375 27.8 38.425C25.3667 39.475 22.7667 40 20 40ZM19.9975 3C15.9325 3 12.3667 4.25833 9.3 6.775C6.23333 9.29167 4.26667 12.4667 3.4 16.3C4.76667 16.3 5.89167 15.975 6.775 15.325C7.65833 14.675 8.58333 13.4 9.55 11.5C10.0083 10.5606 10.6806 9.82575 11.5667 9.29545C12.4528 8.76515 13.4306 8.5 14.5 8.5H25.5C26.5694 8.5 27.5472 8.76515 28.4334 9.29545C29.3195 9.82575 29.9917 10.5606 30.45 11.5C31.4167 13.5 32.3833 14.8 33.35 15.4C34.3167 16 35.4 16.3 36.6 16.3C35.7333 12.4667 33.775 9.29167 30.725 6.775C27.675 4.25833 24.0992 3 19.9975 3ZM19.9868 37C24.7289 37 28.75 35.3417 32.05 32.025C35.35 28.7083 37 24.7 37 20V19.4C34.4667 19.4 32.5083 18.7417 31.125 17.425C29.7417 16.1083 28.6167 14.6 27.75 12.9C27.5167 12.4333 27.2047 12.0833 26.8142 11.85C26.4236 11.6167 26.0022 11.5 25.55 11.5H14.5C14.0097 11.5 13.5704 11.6167 13.1822 11.85C12.7941 12.0833 12.4833 12.4333 12.25 12.9C11.3833 14.6333 10.2333 16.1583 8.8 17.475C7.36667 18.7917 5.43333 19.45 3 19.45V20C3 24.7 4.65445 28.7083 7.96335 32.025C11.2722 35.3417 15.28 37 19.9868 37ZM13.6887 24.85C12.9296 24.85 12.2917 24.5879 11.775 24.0638C11.2583 23.5396 11 22.8979 11 22.1388C11 21.3796 11.2621 20.7417 11.7863 20.225C12.3105 19.7083 12.9521 19.45 13.7113 19.45C14.4704 19.45 15.1083 19.7121 15.625 20.2362C16.1417 20.7604 16.4 21.4021 16.4 22.1612C16.4 22.9204 16.1379 23.5583 15.6137 24.075C15.0895 24.5917 14.4479 24.85 13.6887 24.85ZM26.3388 24.85C25.5796 24.85 24.9417 24.5879 24.425 24.0638C23.9083 23.5396 23.65 22.8979 23.65 22.1388C23.65 21.3796 23.9121 20.7417 24.4362 20.225C24.9604 19.7083 25.6021 19.45 26.3612 19.45C27.1204 19.45 27.7583 19.7121 28.275 20.2362C28.7917 20.7604 29.05 21.4021 29.05 22.1612C29.05 22.9204 28.7879 23.5583 28.2638 24.075C27.7396 24.5917 27.0979 24.85 26.3388 24.85Z" fill="black"/>
</svg>
