<svg width="76" height="64" viewBox="0 0 76 64" fill="none" xmlns="http://www.w3.org/2000/svg">
<path d="M49.6667 3H69.1111C71.2589 3 73 4.73116 73 6.86667V45.5333C73 47.6688 71.2589 49.4 69.1111 49.4H52.0216C48.1208 49.4 44.4781 51.3384 42.3143 54.5655L38 61V14.6C38 8.1935 43.2233 3 49.6667 3Z" stroke="black" stroke-width="5" stroke-linecap="round" stroke-linejoin="round"/>
<path d="M26.3333 3H6.88889C4.74111 3 3 4.73116 3 6.86667V45.5333C3 47.6688 4.74111 49.4 6.88889 49.4H23.9784C27.8792 49.4 31.5219 51.3384 33.6857 54.5655L38 61V14.6C38 8.1935 32.7767 3 26.3333 3Z" stroke="black" stroke-width="5" stroke-linecap="round" stroke-linejoin="round"/>
</svg>
