<svg width="57" height="57" viewBox="0 0 57 57" fill="none" xmlns="http://www.w3.org/2000/svg">
<path d="M28.5 56.9999C24.191 57.012 19.9365 56.0371 16.0627 54.1498C14.645 53.4602 13.2866 52.6547 12.0015 51.7416L11.6111 51.4566C8.07659 48.8477 5.18687 45.4637 3.16375 41.5642C1.07112 37.5283 -0.0142291 33.0461 0.000140854 28.4999C0.000140854 12.7598 12.76 0 28.5 0C44.24 0 56.9999 12.7598 56.9999 28.4999C57.0141 33.0439 55.9297 37.524 53.8391 41.5585C51.8188 45.4557 48.9331 48.8386 45.4032 51.448C44.0716 52.4227 42.6585 53.2809 41.1795 54.013L40.9515 54.127C37.0753 56.0243 32.8156 57.0071 28.5 56.9999ZM28.5 42.7498C24.2293 42.7415 20.3139 45.1268 18.3627 48.9258C24.7506 52.0898 32.2494 52.0898 38.6374 48.9258V48.9115C36.6837 45.1167 32.7682 42.7368 28.5 42.7498ZM28.5 37.0499C34.6734 37.0579 40.3656 40.3847 43.4025 45.7594L43.4453 45.7224L43.4852 45.6882L43.4367 45.7309L43.4082 45.7537C50.6158 39.5268 53.193 29.4755 49.8709 20.5487C46.5489 11.6219 38.0277 5.70088 28.5029 5.70088C18.978 5.70088 10.4568 11.6219 7.13476 20.5487C3.81272 29.4755 6.38993 39.5268 13.5975 45.7537C16.6363 40.3816 22.328 37.0573 28.5 37.0499ZM28.5 34.1999C22.204 34.1999 17.1001 29.0959 17.1001 22.7999C17.1001 16.5039 22.204 11.4 28.5 11.4C34.796 11.4 39.8999 16.5039 39.8999 22.7999C39.8999 25.8234 38.6988 28.723 36.5609 30.8609C34.423 32.9988 31.5234 34.1999 28.5 34.1999ZM28.5 17.0999C25.352 17.0999 22.8001 19.6519 22.8001 22.7999C22.8001 25.9479 25.352 28.4999 28.5 28.4999C31.648 28.4999 34.1999 25.9479 34.1999 22.7999C34.1999 19.6519 31.648 17.0999 28.5 17.0999Z" fill="black"/>
</svg>
