<svg width="28" height="28" viewBox="0 0 28 28" fill="none" xmlns="http://www.w3.org/2000/svg">
<path d="M14 27C21.1797 27 27 21.1797 27 14C27 6.8203 21.1797 1 14 1C6.8203 1 1 6.8203 1 14C1 21.1797 6.8203 27 14 27Z" stroke="black" stroke-width="2" stroke-linecap="round" stroke-linejoin="round"/>
<path d="M12.5722 17.0431V16.9711C12.5802 16.2069 12.6602 15.5988 12.8123 15.1467C12.9643 14.6946 13.1803 14.3285 13.4604 14.0484C13.7405 13.7684 14.0766 13.5103 14.4686 13.2743C14.7047 13.1302 14.9167 12.9602 15.1048 12.7641C15.2928 12.5641 15.4409 12.334 15.5489 12.074C15.6609 11.8139 15.7169 11.5258 15.7169 11.2098C15.7169 10.8177 15.6249 10.4776 15.4409 10.1895C15.2568 9.90146 15.0108 9.6794 14.7027 9.52337C14.3946 9.36733 14.0525 9.28931 13.6765 9.28931C13.3484 9.28931 13.0323 9.35733 12.7282 9.49336C12.4242 9.62939 12.1701 9.84344 11.9661 10.1355C11.762 10.4276 11.644 10.8097 11.612 11.2818H10.0996C10.1316 10.6016 10.3077 10.0195 10.6277 9.53537C10.9518 9.05125 11.3779 8.68117 11.906 8.42511C12.4382 8.16905 13.0283 8.04102 13.6765 8.04102C14.3806 8.04102 14.9928 8.18105 15.5129 8.46111C16.037 8.74118 16.4411 9.12527 16.7252 9.61339C17.0132 10.1015 17.1573 10.6576 17.1573 11.2818C17.1573 11.7219 17.0893 12.12 16.9532 12.4761C16.8212 12.8322 16.6292 13.1502 16.3771 13.4303C16.129 13.7104 15.829 13.9584 15.4769 14.1745C15.1248 14.3945 14.8427 14.6266 14.6307 14.8706C14.4186 15.1107 14.2646 15.3968 14.1686 15.7288C14.0725 16.0609 14.0205 16.475 14.0125 16.9711V17.0431H12.5722ZM13.3404 20.596C13.0443 20.596 12.7902 20.49 12.5782 20.2779C12.3661 20.0659 12.2601 19.8118 12.2601 19.5157C12.2601 19.2197 12.3661 18.9656 12.5782 18.7536C12.7902 18.5415 13.0443 18.4355 13.3404 18.4355C13.6364 18.4355 13.8905 18.5415 14.1026 18.7536C14.3146 18.9656 14.4206 19.2197 14.4206 19.5157C14.4206 19.7118 14.3706 19.8918 14.2706 20.0559C14.1746 20.2199 14.0445 20.3519 13.8805 20.452C13.7205 20.548 13.5404 20.596 13.3404 20.596Z" fill="black" stroke="black" stroke-width="0.2"/>
</svg>
