<svg width="57" height="57" viewBox="0 0 57 57" fill="none" xmlns="http://www.w3.org/2000/svg">
<path d="M23.75 49.875H19C17.7402 49.875 16.532 49.3746 15.6412 48.4838C14.7504 47.593 14.25 46.3848 14.25 45.125V11.875C14.25 10.6152 14.7504 9.40704 15.6412 8.51624C16.532 7.62544 17.7402 7.125 19 7.125H38C39.2598 7.125 40.468 7.62544 41.3588 8.51624C42.2496 9.40704 42.75 10.6152 42.75 11.875V20.1875" stroke="white" stroke-width="4.75" stroke-linecap="round" stroke-linejoin="round"/>
<path d="M38 28C30.7273 28 24.5164 32.354 22 38.5C24.5164 44.646 30.7273 49 38 49C45.2727 49 51.4836 44.646 54 38.5C51.4836 32.354 45.2727 28 38 28ZM38 45.5C33.9855 45.5 30.7273 42.364 30.7273 38.5C30.7273 34.636 33.9855 31.5 38 31.5C42.0145 31.5 45.2727 34.636 45.2727 38.5C45.2727 42.364 42.0145 45.5 38 45.5ZM38 34.3C35.5855 34.3 33.6364 36.176 33.6364 38.5C33.6364 40.824 35.5855 42.7 38 42.7C40.4145 42.7 42.3636 40.824 42.3636 38.5C42.3636 36.176 40.4145 34.3 38 34.3Z" fill="white"/>
</svg>
