<svg width="364" height="365" viewBox="0 0 364 365" fill="none" xmlns="http://www.w3.org/2000/svg">
<path d="M257.99 261.042L280.192 283.243" stroke="black" stroke-width="18" stroke-linecap="round"/>
<path d="M223.475 225.92L200.536 202.981" stroke="black" stroke-width="18" stroke-linecap="round"/>
<path d="M223.475 261.042L202.942 281.575" stroke="black" stroke-width="18" stroke-linecap="round"/>
<path d="M257.99 225.92L280.743 203.168" stroke="black" stroke-width="18" stroke-linecap="round"/>
<rect x="81.9639" y="81.9263" width="79.3844" height="80.7772" rx="2" stroke="black" stroke-width="24"/>
<rect x="202.766" y="81.9263" width="79.3844" height="80.7772" rx="2" stroke="black" stroke-width="24"/>
<path d="M81.9639 208.36C81.9639 204.481 85.0544 201.336 88.8669 201.336H154.445C158.258 201.336 161.348 204.481 161.348 208.36V275.089C161.348 278.968 158.258 282.113 154.445 282.113H88.8669C85.0544 282.113 81.9639 278.968 81.9639 275.089V208.36Z" stroke="black" stroke-width="24"/>
<path d="M119.93 135.607C126.218 135.607 131.285 130.426 131.285 124.071C131.285 117.716 126.218 112.535 119.93 112.535C113.643 112.535 108.576 117.716 108.576 124.071C108.576 130.426 113.643 135.607 119.93 135.607Z" fill="black" stroke="black" stroke-width="2"/>
<path d="M240.733 135.607C247.02 135.607 252.087 130.426 252.087 124.071C252.087 117.716 247.02 112.535 240.733 112.535C234.446 112.535 229.378 117.716 229.378 124.071C229.378 130.426 234.446 135.607 240.733 135.607Z" fill="black" stroke="black" stroke-width="2"/>
<path d="M119.93 255.017C126.218 255.017 131.285 249.835 131.285 243.48C131.285 237.126 126.218 231.944 119.93 231.944C113.643 231.944 108.576 237.126 108.576 243.48C108.576 249.835 113.643 255.017 119.93 255.017Z" fill="black" stroke="black" stroke-width="2"/>
<path d="M240.733 255.017C247.02 255.017 252.087 249.835 252.087 243.48C252.087 237.126 247.02 231.944 240.733 231.944C234.446 231.944 229.378 237.126 229.378 243.48C229.378 249.835 234.446 255.017 240.733 255.017Z" fill="black" stroke="black" stroke-width="2"/>
<path d="M356.568 182.536C356.568 279.066 278.315 357.32 181.784 357.32C85.2535 357.32 7 279.066 7 182.536C7 86.005 85.2535 7.75146 181.784 7.75146C278.315 7.75146 356.568 86.005 356.568 182.536Z" stroke="black" stroke-width="14" stroke-linecap="round" stroke-linejoin="round" stroke-dasharray="1 50"/>
</svg>
