<svg width="22" height="22" viewBox="0 0 22 22" fill="none" xmlns="http://www.w3.org/2000/svg">
<path d="M11 21C16.5228 21 21 16.5228 21 11C21 5.47715 16.5228 1 11 1C5.47715 1 1 5.47715 1 11C1 16.5228 5.47715 21 11 21Z" stroke="white" stroke-width="2" stroke-linecap="round" stroke-linejoin="round"/>
<path d="M10.6246 13.3409V13.2855C10.6308 12.6977 10.6923 12.2299 10.8093 11.8821C10.9262 11.5343 11.0924 11.2527 11.3078 11.0373C11.5233 10.8219 11.7818 10.6233 12.0834 10.4418C12.265 10.331 12.4281 10.2002 12.5728 10.0494C12.7174 9.89548 12.8313 9.71851 12.9144 9.51847C13.0005 9.31842 13.0436 9.09683 13.0436 8.85369C13.0436 8.55208 12.9728 8.29048 12.8313 8.06889C12.6897 7.8473 12.5004 7.67649 12.2635 7.55646C12.0265 7.43643 11.7633 7.37642 11.474 7.37642C11.2217 7.37642 10.9785 7.42874 10.7446 7.53338C10.5107 7.63802 10.3153 7.80268 10.1583 8.02734C10.0014 8.25201 9.91059 8.54593 9.88596 8.90909H8.72261C8.74723 8.38589 8.88265 7.93809 9.12886 7.5657C9.37815 7.1933 9.70592 6.90862 10.1122 6.71165C10.5215 6.51468 10.9755 6.41619 11.474 6.41619C12.0157 6.41619 12.4866 6.52391 12.8867 6.73935C13.2898 6.95478 13.6007 7.25024 13.8192 7.62571C14.0408 8.00118 14.1516 8.42898 14.1516 8.90909C14.1516 9.24763 14.0993 9.55386 13.9946 9.82777C13.8931 10.1017 13.7453 10.3464 13.5514 10.5618C13.3606 10.7772 13.1298 10.968 12.859 11.1342C12.5881 11.3035 12.3712 11.482 12.2081 11.6697C12.0449 11.8544 11.9264 12.0745 11.8526 12.3299C11.7787 12.5853 11.7387 12.9039 11.7326 13.2855V13.3409H10.6246ZM11.2155 16.0739C10.9878 16.0739 10.7923 15.9923 10.6292 15.8292C10.4661 15.6661 10.3845 15.4706 10.3845 15.2429C10.3845 15.0152 10.4661 14.8197 10.6292 14.6566C10.7923 14.4935 10.9878 14.4119 11.2155 14.4119C11.4433 14.4119 11.6387 14.4935 11.8018 14.6566C11.9649 14.8197 12.0465 15.0152 12.0465 15.2429C12.0465 15.3937 12.008 15.5322 11.9311 15.6584C11.8572 15.7846 11.7572 15.8861 11.631 15.9631C11.5079 16.0369 11.3694 16.0739 11.2155 16.0739Z" fill="white"/>
<path d="M10.6246 13.3409H10.5246V13.4409H10.6246V13.3409ZM10.6246 13.2855L10.5246 13.2845V13.2855H10.6246ZM10.8093 11.8821L10.7145 11.8502L10.7145 11.8502L10.8093 11.8821ZM11.3078 11.0373L11.3785 11.108L11.3785 11.108L11.3078 11.0373ZM12.0834 10.4418L12.135 10.5274L12.1355 10.5271L12.0834 10.4418ZM12.5728 10.0494L12.6449 10.1186L12.6456 10.1179L12.5728 10.0494ZM12.9144 9.51847L12.8225 9.4789L12.822 9.48011L12.9144 9.51847ZM10.7446 7.53338L10.7038 7.4421L10.7038 7.4421L10.7446 7.53338ZM10.1583 8.02734L10.2403 8.08461L10.2403 8.08461L10.1583 8.02734ZM9.88596 8.90909V9.00909H9.97941L9.98574 8.91585L9.88596 8.90909ZM8.72261 8.90909L8.62272 8.90439L8.6178 9.00909H8.72261V8.90909ZM9.12886 7.5657L9.04576 7.51007L9.04545 7.51054L9.12886 7.5657ZM10.1122 6.71165L10.0688 6.62154L10.0685 6.62167L10.1122 6.71165ZM12.8867 6.73935L12.8393 6.82739L12.8395 6.82754L12.8867 6.73935ZM13.8192 7.62571L13.7328 7.67601L13.7331 7.67653L13.8192 7.62571ZM13.9946 9.82777L13.9012 9.79208L13.9009 9.793L13.9946 9.82777ZM13.5514 10.5618L13.4771 10.4949L13.4766 10.4955L13.5514 10.5618ZM12.859 11.1342L12.8067 11.049L12.806 11.0494L12.859 11.1342ZM12.2081 11.6697L12.283 11.7359L12.2835 11.7353L12.2081 11.6697ZM11.7326 13.2855L11.6326 13.2839V13.2855H11.7326ZM11.7326 13.3409V13.4409H11.8326V13.3409H11.7326ZM10.6292 15.8292L10.6999 15.7585L10.6999 15.7585L10.6292 15.8292ZM10.6292 14.6566L10.6999 14.7273L10.6999 14.7273L10.6292 14.6566ZM11.9311 15.6584L11.8457 15.6063L11.8448 15.6079L11.9311 15.6584ZM11.631 15.9631L11.6824 16.0488L11.6831 16.0484L11.631 15.9631ZM10.7246 13.3409V13.2855H10.5246V13.3409H10.7246ZM10.7246 13.2866C10.7307 12.7037 10.7918 12.2477 10.904 11.914L10.7145 11.8502C10.5928 12.2121 10.5308 12.6917 10.5246 13.2845L10.7246 13.2866ZM10.904 11.914C11.0171 11.5779 11.176 11.3105 11.3785 11.108L11.2371 10.9666C11.0088 11.1949 10.8354 11.4908 10.7145 11.8502L10.904 11.914ZM11.3785 11.108C11.5874 10.8991 11.8393 10.7055 12.135 10.5274L12.0318 10.3561C11.7243 10.5412 11.4591 10.7446 11.2371 10.9666L11.3785 11.108ZM12.1355 10.5271C12.3243 10.4119 12.4942 10.2757 12.6449 10.1186L12.5006 9.98014C12.362 10.1246 12.2057 10.25 12.0313 10.3564L12.1355 10.5271ZM12.6456 10.1179C12.7987 9.95496 12.9191 9.76772 13.0067 9.55683L12.822 9.48011C12.7434 9.66931 12.6361 9.836 12.4999 9.98087L12.6456 10.1179ZM13.0062 9.55803C13.0984 9.34411 13.1436 9.10885 13.1436 8.85369H12.9436C12.9436 9.08481 12.9027 9.29273 12.8225 9.4789L13.0062 9.55803ZM13.1436 8.85369C13.1436 8.53588 13.0688 8.25498 12.9155 8.01505L12.747 8.12273C12.8769 8.32598 12.9436 8.56829 12.9436 8.85369H13.1436ZM12.9155 8.01505C12.7642 7.77823 12.5614 7.59528 12.3086 7.46725L12.2183 7.64567C12.4395 7.75771 12.6152 7.91637 12.747 8.12273L12.9155 8.01505ZM12.3086 7.46725C12.0564 7.33951 11.7776 7.27642 11.474 7.27642V7.47642C11.7491 7.47642 11.9965 7.53335 12.2183 7.64567L12.3086 7.46725ZM11.474 7.27642C11.2074 7.27642 10.9503 7.3318 10.7038 7.4421L10.7855 7.62466C11.0067 7.52568 11.236 7.47642 11.474 7.47642V7.27642ZM10.7038 7.4421C10.4522 7.55466 10.2429 7.73162 10.0764 7.97007L10.2403 8.08461C10.3876 7.87373 10.5693 7.72139 10.7855 7.62466L10.7038 7.4421ZM10.0764 7.97007C9.9061 8.21377 9.81165 8.52681 9.78619 8.90233L9.98574 8.91585C10.0095 8.56505 10.0966 8.29025 10.2403 8.08461L10.0764 7.97007ZM9.88596 8.80909H8.72261V9.00909H9.88596V8.80909ZM8.8225 8.91379C8.84642 8.40543 8.97761 7.97579 9.21228 7.62085L9.04545 7.51054C8.78769 7.9004 8.64804 8.36635 8.62272 8.90439L8.8225 8.91379ZM9.21196 7.62132C9.4513 7.2638 9.7654 6.99091 10.1558 6.80163L10.0685 6.62167C9.64645 6.82632 9.305 7.1228 9.04576 7.51007L9.21196 7.62132ZM10.1555 6.80176C10.5501 6.61191 10.989 6.51619 11.474 6.51619V6.31619C10.9619 6.31619 10.4929 6.41744 10.0688 6.62154L10.1555 6.80176ZM11.474 6.51619C12.0023 6.51619 12.4563 6.62118 12.8393 6.82739L12.9341 6.6513C12.5169 6.42664 12.0291 6.31619 11.474 6.31619V6.51619ZM12.8395 6.82754C13.2273 7.03471 13.5241 7.31742 13.7328 7.67601L13.9056 7.57541C13.6773 7.18305 13.3524 6.87485 12.9338 6.65115L12.8395 6.82754ZM13.7331 7.67653C13.9447 8.03508 14.0516 8.44499 14.0516 8.90909H14.2516C14.2516 8.41296 14.1369 7.96728 13.9053 7.57488L13.7331 7.67653ZM14.0516 8.90909C14.0516 9.23729 14.0009 9.53118 13.9012 9.79208L14.088 9.86346C14.1977 9.57653 14.2516 9.25797 14.2516 8.90909H14.0516ZM13.9009 9.793C13.8037 10.0552 13.6625 10.2889 13.4771 10.4949L13.6258 10.6287C13.8282 10.4038 13.9825 10.1482 14.0884 9.86254L13.9009 9.793ZM13.4766 10.4955C13.293 10.7028 13.07 10.8874 12.8067 11.049L12.9113 11.2195C13.1897 11.0486 13.4283 10.8516 13.6263 10.6281L13.4766 10.4955ZM12.806 11.0494C12.529 11.2225 12.3037 11.4072 12.1326 11.6042L12.2835 11.7353C12.4386 11.5569 12.6473 11.3845 12.912 11.219L12.806 11.0494ZM12.1331 11.6035C11.9594 11.8001 11.8342 12.0336 11.7565 12.3021L11.9486 12.3577C12.0187 12.1153 12.1304 11.9087 12.283 11.7359L12.1331 11.6035ZM11.7565 12.3021C11.6794 12.5689 11.6388 12.8969 11.6326 13.2839L11.8325 13.2871C11.8386 12.9109 11.8781 12.6018 11.9486 12.3577L11.7565 12.3021ZM11.6326 13.2855V13.3409H11.8326V13.2855H11.6326ZM11.7326 13.2409H10.6246V13.4409H11.7326V13.2409ZM11.2155 15.9739C11.0147 15.9739 10.8446 15.9031 10.6999 15.7585L10.5585 15.8999C10.7401 16.0815 10.9609 16.1739 11.2155 16.1739V15.9739ZM10.6999 15.7585C10.5553 15.6138 10.4845 15.4437 10.4845 15.2429H10.2845C10.2845 15.4975 10.3769 15.7183 10.5585 15.8999L10.6999 15.7585ZM10.4845 15.2429C10.4845 15.0421 10.5553 14.8719 10.6999 14.7273L10.5585 14.5859C10.3769 14.7675 10.2845 14.9882 10.2845 15.2429H10.4845ZM10.6999 14.7273C10.8446 14.5827 11.0147 14.5119 11.2155 14.5119V14.3119C10.9609 14.3119 10.7401 14.4043 10.5585 14.5859L10.6999 14.7273ZM11.2155 14.5119C11.4164 14.5119 11.5865 14.5827 11.7311 14.7273L11.8725 14.5859C11.6909 14.4043 11.4702 14.3119 11.2155 14.3119V14.5119ZM11.7311 14.7273C11.8757 14.8719 11.9465 15.0421 11.9465 15.2429H12.1465C12.1465 14.9882 12.0541 14.7675 11.8725 14.5859L11.7311 14.7273ZM11.9465 15.2429C11.9465 15.3757 11.9129 15.4962 11.8457 15.6063L12.0164 15.7104C12.1031 15.5682 12.1465 15.4117 12.1465 15.2429H11.9465ZM11.8448 15.6079C11.7793 15.7196 11.6912 15.8093 11.5789 15.8777L11.6831 16.0484C11.8232 15.963 11.9351 15.8495 12.0174 15.7089L11.8448 15.6079ZM11.5795 15.8773C11.4731 15.9412 11.3526 15.9739 11.2155 15.9739V16.1739C11.3862 16.1739 11.5427 16.1327 11.6824 16.0488L11.5795 15.8773Z" fill="white"/>
</svg>
