<svg width="364" height="365" viewBox="0 0 364 365" fill="none" xmlns="http://www.w3.org/2000/svg">
<path fill-rule="evenodd" clip-rule="evenodd" d="M222.538 244.082C207.335 251.764 189.912 256.128 171.393 256.128C112.157 256.128 64.136 211.479 64.136 156.402C64.136 101.324 112.157 56.6753 171.393 56.6753C230.63 56.6753 278.65 101.324 278.65 156.402C278.65 182.189 268.124 205.69 250.848 223.393L287.305 257.291C294.629 264.1 294.629 275.695 287.305 282.505V282.505C280.698 288.648 270.469 288.648 263.861 282.505L222.538 244.082ZM242.898 156.402C242.898 193.12 210.884 222.886 171.393 222.886C131.902 222.886 99.8884 193.12 99.8884 156.402C99.8884 119.683 131.902 89.9174 171.393 89.9174C210.884 89.9174 242.898 119.683 242.898 156.402Z" fill="black"/>
<path d="M356.89 182.536C356.89 279.066 278.636 357.32 182.105 357.32C85.5748 357.32 7.32129 279.066 7.32129 182.536C7.32129 86.005 85.5748 7.75146 182.105 7.75146C278.636 7.75146 356.89 86.005 356.89 182.536Z" stroke="black" stroke-width="14" stroke-linecap="round" stroke-linejoin="round" stroke-dasharray="1 50"/>
</svg>
