<svg width="61" height="61" viewBox="0 0 61 61" fill="none" xmlns="http://www.w3.org/2000/svg">
<path d="M31.4889 35.9263C30.6365 36.6032 30.085 37.6813 30.085 38.8596V52.6486H47.6345C50.3923 52.6486 52.6487 50.3922 52.6487 47.6344V32.6421C50.292 31.8147 47.7599 31.3384 45.1274 31.3384C40.0381 31.3384 35.2746 33.0933 31.4889 35.9263Z" fill="black"/>
<path d="M45.1272 27.5781C52.0503 27.5781 57.6626 21.9658 57.6626 15.0427C57.6626 8.11962 52.0503 2.50732 45.1272 2.50732C38.2041 2.50732 32.5918 8.11962 32.5918 15.0427C32.5918 21.9658 38.2041 27.5781 45.1272 27.5781Z" fill="black"/>
<path d="M28.8317 15.0427C28.8317 12.3351 29.5086 9.77786 30.6869 7.52148H12.5356C9.77786 7.52148 7.52148 9.77786 7.52148 12.5356V47.6348C7.52148 49.0137 8.09811 50.2672 9.00066 51.1698L33.6202 26.5502C30.6618 23.6169 28.8317 19.5555 28.8317 15.0427Z" fill="black"/>
</svg>
